# xmcd
#
# Track frame offsets: 
#        150
#        12655
#        32913
#        77556
#        91149
#        106546
#        122296
#        157096
#        168154
#        182226
#        201091
#        228546
#        250511
#        266816
#        296926
#        312816
#        332911
#
# Disc length: 4773 seconds
#
# Revision: 3
# Processed by: cddbd v1.5.2PL0 Copyright (c) Steve Scherf et al.
# Submitted via: ExactAudioCopy v1.3
#
DISCID=e212a311
DTITLE=Various Artist - Akella Presents - vol.86 - Blues from 90th  C
DTITLE=D1
DYEAR=2016
DGENRE=Blues
TTITLE0=Chip Vandiver - Love Ain't Never Satisfied
TTITLE1=Jim Suhler And Monkey Beat - Doncha Hang Around My Door
TTITLE2=Mick Martin and The Blues Rockers - Losing You
TTITLE3=Metro Blues All Stars - I Would Do For You
TTITLE4=Stan Ruffo and The Instigators - Take Away My Breath
TTITLE5=Planet Rockers - Tennessee Woman
TTITLE6=Terry Evans - Down In Mississippi
TTITLE7=Dan Hyes - She Says She Will
TTITLE8=Billy Earl McLelland - Highway Blues
TTITLE9=Michael Hardie - Pretenders Blues
TTITLE10=Barry Richman Band - Reflection Avenue
TTITLE11=Soul Drivers - Don't Keep Me Waiting
TTITLE12=Jaime Troy Nicolaisen - Is This What It Takes
TTITLE13=Billy Hector - Someday Baby
TTITLE14=Little Charles and The Sidewinders - Young Girl
TTITLE15=Dr. Hector and The Groove Injectors - Pickin' The Blues
TTITLE16=Barry Richman Band - Without Explanation
EXTD=
EXTT0=
EXTT1=
EXTT2=
EXTT3=
EXTT4=
EXTT5=
EXTT6=
EXTT7=
EXTT8=
EXTT9=
EXTT10=
EXTT11=
EXTT12=
EXTT13=
EXTT14=
EXTT15=
EXTT16=
PLAYORDER=
